<svg xmlns="http://www.w3.org/2000/svg" width="128" height="128" viewBox="0 0 128 128" role="img" aria-label="ガチャ">
  <defs>
    <radialGradient id="bg" cx="36%" cy="24%" r="78%">
      <stop offset="0" stop-color="#fff8d8"/>
      <stop offset=".44" stop-color="#e9d7ff"/>
      <stop offset="1" stop-color="#332343"/>
    </radialGradient>
    <linearGradient id="gold" x1="0" x2="0" y1="0" y2="1">
      <stop offset="0" stop-color="#fff3bd"/>
      <stop offset=".54" stop-color="#ffc76b"/>
      <stop offset="1" stop-color="#9c6138"/>
    </linearGradient>
    <linearGradient id="aqua" x1="0" x2="1" y1="0" y2="1">
      <stop offset="0" stop-color="#dffbff"/>
      <stop offset=".55" stop-color="#7ddcff"/>
      <stop offset="1" stop-color="#9c7bff"/>
    </linearGradient>
    <filter id="glow" x="-60%" y="-60%" width="220%" height="220%">
      <feGaussianBlur stdDeviation="4" result="b"/>
      <feColorMatrix in="b" type="matrix" values="1 0 0 0 1  0 1 0 0 .78  0 0 1 0 .42  0 0 0 .75 0"/>
      <feMerge><feMergeNode/><feMergeNode in="SourceGraphic"/></feMerge>
    </filter>
  </defs>
  <rect x="8" y="8" width="112" height="112" rx="34" fill="url(#bg)"/>
  <path d="M24 28c16-13 64-15 82 7" fill="none" stroke="#fff8d8" stroke-width="3" opacity=".55"/>
  <circle cx="30" cy="30" r="4" fill="#fff6c9" opacity=".82"/>
  <circle cx="100" cy="90" r="5" fill="#86e2ff" opacity=".52"/>
  
  <g filter="url(#glow)">
    <path d="M35 46c0-14 12-25 29-25s29 11 29 25v33c0 17-12 29-29 29S35 96 35 79z" fill="#7a3d57"/>
    <circle cx="64" cy="55" r="28" fill="url(#aqua)" opacity=".92"/>
    <path d="M43 81h42v16H43z" fill="url(#gold)"/>
    <circle cx="64" cy="83" r="9" fill="#fff6c8"/>
    <path d="M56 48c4-7 13-8 19 0" stroke="#fff8d8" stroke-width="6" fill="none" stroke-linecap="round"/>
    <circle cx="53" cy="62" r="4" fill="#3c2541"/>
    <circle cx="75" cy="62" r="4" fill="#3c2541"/>
    <path d="M52 31l-6-9M76 31l6-9" stroke="#fff3a8" stroke-width="5" stroke-linecap="round"/>
  </g>

</svg>
